<svg width="94" height="93" fill="none" xmlns="http://www.w3.org/2000/svg"><path d="M89.194 69.868c-5.725-1.462-14.925 2.372-18.881 4.224a3.628 3.628 0 0 0-.288-.889c-1.64-3.475-9-5.04-9.863-5.213-.149-.026-.311-.068-.465-.1.052-.128.083-.266.083-.412 0-4.326 2.414-9.542 5.732-13.039 3.43 3.316 8.72 3.759 12.641.934 4.066-2.93 10.427-17.412 11.14-19.052a1.09 1.09 0 0 0-.117-1.072 1.081 1.081 0 0 0-.98-.45c-1.784.156-17.534 1.609-21.599 4.538-4.296 3.097-5.354 9.026-2.486 13.414-1.757 1.802-3.277 4.015-4.405 6.371.17-5.9.588-13.164 1.427-19.894.663-1.096 3.648-5.578 8.062-5.578l.108.001a1.09 1.09 0 0 0 .016-2.182c-3.274-.015-5.832 1.73-7.578 3.478.346-2.151.742-4.198 1.199-6.06a11.177 11.177 0 0 0 14.02-3.07c3.572-4.603 5.975-23.778 6.075-24.592.049-.381-.11-.76-.413-.997a1.092 1.092 0 0 0-1.067-.152C80.79.375 62.812 7.459 59.24 12.06c-3.745 4.825-2.916 11.764 1.81 15.589-.564 2.132-1.04 4.472-1.442 6.919-1.132-2.198-3.036-4.625-6.147-5.57a1.097 1.097 0 0 0-1.361.727 1.093 1.093 0 0 0 .727 1.36c4.736 1.44 6.06 7.72 6.125 8.043-.881 7.03-1.257 14.345-1.412 19.708-1.115-2.25-2.587-4.355-4.273-6.085 2.868-4.39 1.81-10.317-2.486-13.413-4.065-2.93-19.815-4.383-21.598-4.538a1.077 1.077 0 0 0-.98.449 1.09 1.09 0 0 0-.117 1.072c.712 1.64 7.074 16.122 11.14 19.052 3.92 2.825 9.21 2.383 12.64-.934 2.916 3.073 5.528 7.91 5.566 12.406.002.185.064.35.149.5-6.326-1.958-14.858-6.821-14.87-6.821-5.527-4.095-13.378-1.48-18.312.927l-.217-1.277a1.09 1.09 0 0 0-1.258-.892L.909 63.016c-.594.1-.994.663-.894 1.259l4.722 27.817a1.09 1.09 0 0 0 1.257.892l22.013-3.737c.593-.1.994-.663.893-1.258l-.415-2.452c9.531 1.475 22.45 5.889 22.556 5.925 7.378 2.771 15.346 1.589 22.265-1.965 5.446-2.823 14.125-6.051 18.168-10.186 2.955-3.02 1.663-8.461-2.28-9.446v.003Zm-21.32-28.76c2.69-1.938 13.09-3.37 18.66-3.954-2.316 5.1-6.966 14.51-9.657 16.451-3.03 2.182-7.097 1.86-9.772-.653 1.282-1.044 2.027-1.382 5.81-3.59.52-.302.696-.971.392-1.49a1.092 1.092 0 0 0-1.493-.393c-3.872 2.26-4.651 2.62-6.05 3.753-1.98-3.384-1.136-7.784 2.11-10.123ZM60.962 13.4c2.4-3.091 13.752-8.179 19.664-10.6-.88 6.327-2.99 18.588-5.39 21.678A8.978 8.978 0 0 1 63.53 26.71c1.013-3.417 2.27-6 3.83-7.14a1.09 1.09 0 0 0-1.288-1.762c-1.796 1.312-3.214 4.03-4.342 7.528-3.184-3.168-3.59-8.298-.768-11.935v-.001Zm-9.35 37.83c-1.4-1.132-2.188-1.497-6.052-3.752a1.091 1.091 0 0 0-1.1 1.883c3.782 2.207 4.527 2.544 5.81 3.59-2.677 2.513-6.744 2.833-9.772.653-2.69-1.94-7.34-11.351-9.657-16.451 5.57.582 15.97 2.016 18.66 3.955 3.247 2.34 4.092 6.739 2.11 10.123ZM6.705 90.653 2.348 64.985l19.863-3.371 4.358 25.666-19.863 3.372Zm83.21-12.866c-3.696 3.78-12.218 6.977-17.61 9.772-4.013 2.062-12.013 5.045-20.525 1.852-.577-.2-13.898-4.746-23.678-6.13l-3.325-19.587c3.804-1.923 11.688-5.085 16.74-1.348.472.272 11.64 6.641 18.245 7.788 2.733.548 7.402 2.118 8.29 4 .184.388.17.765-.025 1.197-3.426 3.45-8.213 3.92-12.852 1.232-3.838-2.224-8.475-2.879-8.67-2.905a1.08 1.08 0 0 0-1.228.934 1.09 1.09 0 0 0 .933 1.23c.043.005 4.416.626 7.873 2.629 5.596 3.245 11.473 2.462 15.48-1.563 1.211-.618 12.915-6.47 19.1-4.906 2.266.567 3.06 3.96 1.252 5.805Z" fill="#195AFF"/><path d="M15.908 68.837a3.112 3.112 0 1 1-6.223 0 3.112 3.112 0 0 1 6.223 0Z" fill="#195AFF"/></svg>