<svg width="121" height="120" fill="none" xmlns="http://www.w3.org/2000/svg"><path d="M68.705 47.38a1.094 1.094 0 0 0-1.27.197l-7.018 7.022-7.027-7.023a1.093 1.093 0 0 0-1.271-.197 14.795 14.795 0 0 0-8.034 13.197v21.802c0 .602.489 1.091 1.09 1.091h5.497V105c0 .602.49 1.091 1.092 1.091h17.305c.602 0 1.091-.489 1.091-1.091V83.47h5.497c.602 0 1.09-.488 1.09-1.09l.001-21.802a14.794 14.794 0 0 0-8.044-13.198h.001Zm5.863 33.908h-5.496c-.602 0-1.09.489-1.09 1.09l-.001 21.53h-6.473V83.08h-2.182v20.828h-6.471v-21.53c0-.601-.49-1.09-1.091-1.09h-5.497V60.576c0-4.499 2.342-8.596 6.162-10.876l7.217 7.212a1.093 1.093 0 0 0 1.542-.002l7.206-7.211a12.618 12.618 0 0 1 6.172 10.876v20.712h.002ZM29.786 35.13a1.089 1.089 0 0 0 1.43-.58c4.987-11.765 16.447-19.368 29.2-19.368 12.574 0 23.97 7.456 29.037 18.994a1.091 1.091 0 0 0 1.997-.877C86.037 20.967 73.855 13 60.417 13c-13.631 0-25.881 8.125-31.209 20.702a1.091 1.091 0 0 0 .579 1.43l-.001-.001Z" fill="#195AFF"/><path d="M49.759 35.208c0 5.876 4.781 10.657 10.657 10.657s10.657-4.781 10.657-10.657-4.78-10.657-10.657-10.657c-5.876 0-10.657 4.78-10.657 10.657Zm19.133 0c0 4.673-3.802 8.476-8.476 8.476-4.673 0-8.475-3.803-8.475-8.476 0-4.673 3.802-8.476 8.475-8.476 4.674.002 8.476 3.803 8.476 8.476ZM60.417 59.64c-.602 0-1.09.489-1.09 1.09v1.032a1.091 1.091 0 0 0 2.18 0v-1.031c0-.602-.488-1.091-1.09-1.091ZM60.417 64.24c-.602 0-1.09.488-1.09 1.09v1.031a1.091 1.091 0 0 0 2.18 0v-1.03c0-.603-.488-1.092-1.09-1.092ZM60.417 68.837c-.602 0-1.09.489-1.09 1.09v1.032a1.091 1.091 0 0 0 2.18 0v-1.031c0-.603-.488-1.091-1.09-1.091ZM60.417 73.436c-.602 0-1.09.49-1.09 1.091v1.032a1.091 1.091 0 0 0 2.18 0v-1.032c0-.602-.488-1.09-1.09-1.09ZM34.936 56.441a1.1 1.1 0 0 0-1.273.198l-5.77 5.775-5.78-5.775a1.089 1.089 0 0 0-1.27-.198A12.598 12.598 0 0 0 14 67.683v18.314c0 .602.489 1.09 1.09 1.09h4.445v17.911c0 .602.488 1.091 1.09 1.091h14.538c.603 0 1.091-.489 1.091-1.091l.001-17.91h4.444c.602 0 1.09-.49 1.09-1.091V67.68a12.607 12.607 0 0 0-6.853-11.24Zm4.67 28.466h-4.444c-.602 0-1.09.489-1.09 1.09v17.911h-5.088V86.586h-2.181v17.322h-5.087v-17.91c0-.602-.489-1.091-1.09-1.091H16.18V67.682a10.42 10.42 0 0 1 4.975-8.915l5.966 5.962c.204.205.482.32.77.32h.002c.289 0 .567-.115.77-.32l5.957-5.962a10.427 10.427 0 0 1 4.983 8.915v17.225h.002ZM27.894 55.5c5.033 0 9.126-4.093 9.126-9.126 0-5.033-4.093-9.127-9.126-9.127-5.033 0-9.127 4.095-9.127 9.127 0 5.033 4.095 9.126 9.127 9.126Zm0-16.07c3.83 0 6.944 3.115 6.944 6.945a6.952 6.952 0 0 1-6.944 6.944c-3.828 0-6.946-3.116-6.946-6.944a6.953 6.953 0 0 1 6.946-6.946ZM99.983 56.441a1.1 1.1 0 0 0-1.273.198l-5.77 5.775-5.78-5.775a1.089 1.089 0 0 0-1.27-.198 12.598 12.598 0 0 0-6.843 11.242v18.314c0 .602.489 1.09 1.09 1.09h4.445v17.911c0 .602.489 1.091 1.091 1.091h14.538c.602 0 1.091-.489 1.091-1.091v-17.91h4.442c.602 0 1.091-.49 1.091-1.091V67.68a12.606 12.606 0 0 0-6.852-11.24Zm4.669 28.466h-4.442c-.602 0-1.091.489-1.091 1.09v17.911H94.03V86.586h-2.182v17.322h-5.087v-17.91c0-.602-.489-1.091-1.09-1.091h-4.444V67.682a10.42 10.42 0 0 1 4.975-8.915l5.965 5.962c.205.205.482.32.77.32h.002c.29 0 .567-.115.77-.32l5.957-5.962a10.427 10.427 0 0 1 4.983 8.915v17.225h.002ZM83.814 46.375c0 5.033 4.094 9.126 9.127 9.126s9.126-4.093 9.126-9.126c0-5.033-4.093-9.127-9.126-9.127-5.033 0-9.127 4.095-9.127 9.127Zm9.127-6.945c3.83 0 6.944 3.116 6.944 6.945a6.952 6.952 0 0 1-6.944 6.945c-3.83 0-6.946-3.116-6.946-6.945 0-3.83 3.117-6.945 6.946-6.945Z" fill="#195AFF"/><path d="M92.94 66.722c-.602 0-1.09.489-1.09 1.09v.868a1.091 1.091 0 0 0 2.181 0v-.868c0-.602-.489-1.09-1.09-1.09ZM92.94 70.586c-.602 0-1.09.489-1.09 1.09v.868a1.091 1.091 0 0 0 2.181 0v-.867c0-.603-.489-1.091-1.09-1.091ZM92.94 74.448c-.602 0-1.09.489-1.09 1.09v.868a1.091 1.091 0 0 0 2.181 0v-.867c0-.602-.489-1.091-1.09-1.091ZM92.94 78.31c-.602 0-1.09.489-1.09 1.091v.867a1.092 1.092 0 0 0 2.181 0v-.867c0-.603-.489-1.09-1.09-1.09ZM27.894 66.722c-.602 0-1.091.489-1.091 1.09v.868a1.091 1.091 0 0 0 2.181 0v-.868c0-.602-.488-1.09-1.09-1.09ZM27.894 70.586c-.602 0-1.091.489-1.091 1.09v.868a1.091 1.091 0 0 0 2.181 0v-.867c0-.603-.488-1.091-1.09-1.091ZM27.894 74.448c-.602 0-1.091.489-1.091 1.09v.868a1.091 1.091 0 0 0 2.181 0v-.867c0-.602-.488-1.091-1.09-1.091ZM27.894 78.31c-.602 0-1.091.489-1.091 1.091v.867a1.092 1.092 0 0 0 2.181 0v-.867a1.09 1.09 0 0 0-1.09-1.09Z" fill="#195AFF"/></svg>