<svg width="121" height="120" fill="none" xmlns="http://www.w3.org/2000/svg"><path d="M102.998 45.531c-.009-3.375-6.832-4.915-13.18-4.916-6.34 0-13.164 1.538-13.171 4.913l-.002.004v.003l-.004 55.994c0 3.785 5.663 6.639 13.174 6.639 7.512 0 13.18-2.853 13.18-6.637l.004-55.996-.001-.004Zm-13.175-2.734c7.25 0 10.99 1.92 10.993 2.739-.007 2.153-13.74 4.258-20.46 1.193-1.124-.515-1.529-.997-1.529-1.194.003-.82 3.742-2.738 10.995-2.738Zm10.99 58.735c0 2.107-4.517 4.455-10.997 4.455h-.003c-6.475 0-10.989-2.349-10.989-4.456l.005-53.113c5.128 2.773 17.248 2.607 21.989-.004l-.005 53.118ZM46.885 57.989v.003l-.003 43.534c0 3.785 5.66 6.639 13.171 6.639 7.514 0 13.183-2.853 13.183-6.637V57.989c-.008-3.375-6.832-4.915-13.175-4.916-6.344 0-13.17 1.54-13.176 4.915Zm24.167 43.541c0 2.107-4.518 4.455-11 4.455-6.476 0-10.99-2.349-10.99-4.456l.003-40.653c4.831 2.665 16.98 2.758 21.99 0l-.003 40.654ZM60.06 55.256c7.251 0 10.991 1.92 10.994 2.74-.002.287-.473.712-1.385 1.14-3.246 1.522-8.56 1.76-12.163 1.514-5.498-.387-8.437-1.961-8.44-2.657.004-.818 3.744-2.737 10.994-2.737ZM17.122 70.45l-.002.003v31.073c0 3.785 5.663 6.639 13.174 6.639 7.513 0 13.18-2.854 13.18-6.637l.002-31.072v-.004c-.007-3.377-6.832-4.918-13.176-4.918-6.346 0-13.17 1.539-13.178 4.915v.001Zm13.171 35.534h-.003c-6.476 0-10.99-2.349-10.99-4.457l.002-28.191c.047.026.105.048.154.073 5.029 2.643 16.859 2.62 21.835-.07l-.001 28.19c.001 2.107-4.516 4.455-10.996 4.455h-.001Zm.004-38.267c7.252 0 10.992 1.92 10.994 2.74 0 .03-.016.066-.028.1-.679 1.58-6.58 2.638-10.961 2.638v.003h-.005v-.001c-4.736 0-10.989-1.286-10.993-2.742.003-.819 3.742-2.737 10.993-2.737ZM27.39 53.44l-1.088 1.299c1.083.945 2.307 1.486 3.668 1.626v1.089h.956v-1.073c1.013-.05 1.83-.348 2.446-.895.617-.547.925-1.256.925-2.125 0-.87-.268-1.533-.805-1.991-.537-.457-1.378-.82-2.521-1.09h-.045v-2.804c.766.109 1.477.398 2.132.865l.97-1.372c-.974-.666-2.008-1.038-3.102-1.118v-.76h-.955v.745c-.965.051-1.747.348-2.35.895-.601.547-.901 1.25-.901 2.11 0 .86.26 1.51.782 1.947.523.438 1.344.791 2.469 1.059v2.894c-.885-.142-1.746-.574-2.581-1.3Zm3.536-1.342c.597.179 1.004.371 1.222.575.22.203.33.48.33.828 0 .347-.14.636-.418.865-.278.228-.656.368-1.133.417v-2.685Zm-2.089-2.647c-.2-.193-.298-.458-.298-.791s.127-.611.381-.835c.253-.225.603-.355 1.051-.395v2.58c-.558-.18-.934-.365-1.134-.559ZM60.676 43.392c.994-.049 1.794-.34 2.398-.878.605-.535.906-1.23.907-2.082 0-.854-.263-1.504-.79-1.952-.526-.448-1.35-.804-2.47-1.067h-.044v-2.75a4.71 4.71 0 0 1 2.09.848l.95-1.345c-.956-.653-1.97-1.018-3.04-1.097v-.746h-.938v.73c-.945.05-1.713.34-2.302.877-.59.535-.884 1.225-.884 2.069 0 .842.255 1.48.768 1.907.512.43 1.317.775 2.418 1.039v2.836c-.867-.136-1.71-.56-2.529-1.273l-1.067 1.271c1.062.927 2.26 1.457 3.595 1.595v1.067h.937v-1.05h.001Zm0-4.196c.585.176.985.363 1.199.563.214.2.321.47.321.811 0 .342-.136.624-.41.848-.273.224-.643.361-1.11.409v-2.631Zm-.937-2.047c-.545-.177-.916-.358-1.11-.549-.194-.19-.292-.448-.292-.775 0-.326.124-.6.374-.82.248-.218.592-.347 1.03-.386l-.002 2.53Z" fill="#195AFF"/><path d="M19.418 51.27c0 6 4.882 10.882 10.88 10.882 6.001 0 10.883-4.88 10.883-10.88 0-6-4.882-10.881-10.883-10.881-6 0-10.88 4.88-10.88 10.88Zm10.881-8.255c4.553 0 8.257 3.704 8.257 8.258 0 4.553-3.704 8.258-8.258 8.258-4.553 0-8.256-3.705-8.256-8.259 0-2.206.858-4.28 2.417-5.839a8.204 8.204 0 0 1 5.84-2.418ZM70.726 38.386c0-5.88-4.784-10.666-10.664-10.666-5.882 0-10.666 4.785-10.666 10.666 0 5.882 4.783 10.666 10.666 10.666 5.88-.001 10.664-4.785 10.664-10.666Zm-18.76-.001c0-4.463 3.633-8.094 8.096-8.094 4.462 0 8.093 3.633 8.093 8.095 0 4.462-3.63 8.093-8.093 8.093h-.002c-4.462 0-8.093-3.63-8.093-8.094ZM89.457 12.857c-6.73 0-12.206 5.475-12.206 12.204 0 6.73 5.476 12.205 12.206 12.205 6.729 0 12.204-5.475 12.204-12.204 0-6.73-5.475-12.205-12.204-12.205Zm0 21.465c-5.108 0-9.262-4.155-9.262-9.263 0-5.106 4.154-9.26 9.262-9.26 5.107 0 9.26 4.155 9.26 9.262 0 5.106-4.153 9.26-9.26 9.26Z" fill="#195AFF"/><path d="M90.21 23.948h-.05v-3.145a5.4 5.4 0 0 1 2.391.97l1.088-1.538c-1.093-.748-2.253-1.166-3.48-1.256v-.852h-1.07v.836c-1.082.057-1.96.39-2.636 1.004-.675.614-1.01 1.402-1.012 2.367 0 .965.293 1.693.878 2.183.586.492 1.508.888 2.769 1.19v3.244c-.992-.155-1.957-.641-2.895-1.456l-1.22 1.455c1.214 1.06 2.586 1.667 4.115 1.824v1.222h1.072v-1.204c1.137-.056 2.052-.392 2.743-1.004.693-.612 1.037-1.409 1.037-2.384 0-.976-.3-1.721-.903-2.233-.604-.513-1.547-.922-2.828-1.223Zm-1.122-.3c-.624-.202-1.048-.411-1.271-.628-.224-.218-.335-.513-.335-.887s.141-.685.426-.937c.284-.25.677-.398 1.178-.443l.002 2.894Zm2.342 4.885c-.313.256-.737.413-1.272.468v-3.01c.67.2 1.126.415 1.372.643.246.229.368.539.368.929s-.157.712-.468.97Z" fill="#195AFF"/></svg>