<svg width="228" height="42" fill="none" xmlns="http://www.w3.org/2000/svg"><path d="M59.078 18.1v6.026c.176.01.327.015.454.015.565 0 .958-.139 1.177-.417.22-.278.329-.855.329-1.733v-1.945c0-.81-.127-1.336-.38-1.58-.254-.243-.78-.365-1.58-.365Zm-6.157-4.05h6.201c1.677 0 2.966.13 3.868.394.902.264 1.58.644 2.033 1.141.454.497.76 1.1.922 1.806.16.707.24 1.802.24 3.284v2.062c0 1.511-.155 2.613-.467 3.305-.312.692-.885 1.224-1.718 1.595-.834.37-1.924.555-3.27.555h-1.652v9.536h-6.157V14.049ZM75.867 20.134c0-1.102-.061-1.807-.183-2.114-.122-.307-.373-.46-.753-.46-.322 0-.568.124-.739.372-.17.249-.255.983-.255 2.202V31.19c0 1.375.055 2.223.168 2.545.112.322.373.483.782.483.42 0 .688-.185.804-.556.118-.37.176-1.253.176-2.647V20.134Zm6.157 7.78c0 2.38-.056 4.064-.168 5.053a5.662 5.662 0 0 1-1.053 2.713c-.59.82-1.387 1.448-2.391 1.887-1.004.439-2.175.658-3.51.658-1.268 0-2.406-.207-3.415-.622-1.01-.414-1.821-1.035-2.435-1.864a5.602 5.602 0 0 1-1.097-2.706c-.117-.975-.176-2.681-.176-5.119v-4.05c0-2.38.056-4.064.168-5.054A5.656 5.656 0 0 1 69 16.097c.59-.819 1.387-1.448 2.392-1.887 1.004-.438 2.174-.658 3.51-.658 1.267 0 2.406.208 3.415.622 1.009.414 1.82 1.036 2.435 1.865a5.61 5.61 0 0 1 1.097 2.705c.117.975.175 2.682.175 5.12v4.05ZM98.698 24.36H92.54v-4.115c0-1.197-.066-1.944-.198-2.24-.132-.297-.422-.446-.87-.446-.507 0-.83.18-.966.542-.136.36-.204 1.14-.204 2.34v10.998c0 1.15.068 1.901.204 2.252.137.351.444.527.922.527.458 0 .758-.176.9-.528.14-.352.212-1.178.212-2.478v-2.976h6.157v.923c0 2.45-.174 4.189-.52 5.214-.346 1.025-1.111 1.924-2.296 2.695-1.184.772-2.645 1.157-4.38 1.157-1.804 0-3.29-.327-4.46-.98s-1.946-1.557-2.326-2.713c-.38-1.155-.57-2.893-.57-5.214V22.4c0-1.706.058-2.985.175-3.839.117-.852.466-1.674 1.046-2.464.58-.79 1.384-1.412 2.413-1.865 1.028-.453 2.21-.68 3.546-.68 1.814 0 3.31.35 4.49 1.052 1.18.701 1.955 1.575 2.326 2.622.37 1.046.556 2.675.556 4.885v2.25ZM113.309 14.05v4.738h-3.657v18.94h-6.157v-18.94h-3.642V14.05h13.456ZM114.712 14.05h10.267v4.738h-4.11v4.49h3.847v4.505h-3.847v5.206h4.519v4.739h-10.676V14.05ZM139.641 14.05l-2.164 10.471 3.261 13.207h-5.704c-.682-2.36-1.305-5.237-1.872-8.63a77.534 77.534 0 0 1-.649 4.769l-.579 3.86h-5.996l2.237-13.206-2.237-10.472h5.952c.108.653.322 1.74.642 3.26.258 1.16.468 2.228.63 3.205l1.317-6.464h5.162ZM155.064 31.293c0 2.281-.561 3.954-1.681 5.016-1.122 1.063-2.848 1.595-5.178 1.595-2.477 0-4.256-.517-5.338-1.55-1.083-1.034-1.624-2.804-1.624-5.31v-1.857h5.909v3.627c0 .955.336 1.433 1.009 1.433.488 0 .775-.185.862-.556.089-.37.132-1.272.132-2.705v-3.92h-3.407v-3.452h3.407v-4.036c0-.76-.049-1.29-.145-1.587-.099-.297-.357-.446-.776-.446-.722 0-1.082.468-1.082 1.404v2.72h-5.909v-2.003c0-2.214.507-3.73 1.521-4.549 1.014-.819 2.774-1.229 5.28-1.229 2.311 0 4.059.498 5.243 1.493 1.185.994 1.777 2.452 1.777 4.372v11.54ZM171.635 14.05v23.678h-6.157v-9.945h-1.843v9.945h-6.157V14.05h6.157v8.468h1.843v-8.469h6.157ZM174.105 14.05h10.267v4.738h-4.109v4.49h3.846v4.505h-3.846v5.206h4.519v4.739h-10.677V14.05ZM192.71 18.1v6.026c.175.01.326.015.453.015.566 0 .958-.139 1.178-.417.219-.278.329-.855.329-1.733v-1.945c0-.81-.127-1.336-.381-1.58-.253-.243-.78-.365-1.579-.365Zm-6.157-4.05h6.201c1.676 0 2.966.13 3.868.394.902.264 1.58.644 2.033 1.141.453.497.761 1.1.921 1.806.161.707.242 1.802.242 3.284v2.062c0 1.511-.157 2.613-.468 3.305-.312.692-.885 1.224-1.719 1.595-.833.37-1.923.555-3.268.555h-1.653v9.536h-6.157V14.049ZM212.278 18.773h-4.519v18.954h-6.172V14.035h10.691v4.738ZM221.843 20.134c0-1.102-.061-1.807-.183-2.114-.122-.307-.373-.46-.753-.46-.322 0-.569.124-.739.372-.171.249-.256.983-.256 2.202V31.19c0 1.375.056 2.223.169 2.545.111.322.372.483.782.483.419 0 .687-.185.804-.556.117-.37.176-1.253.176-2.647V20.134Zm6.157 7.78c0 2.38-.056 4.064-.168 5.053a5.659 5.659 0 0 1-1.053 2.713c-.59.82-1.387 1.448-2.391 1.887-1.005.439-2.175.658-3.51.658-1.268 0-2.406-.207-3.415-.622-1.01-.414-1.821-1.035-2.435-1.864a5.597 5.597 0 0 1-1.097-2.706c-.118-.975-.176-2.681-.176-5.119v-4.05c0-2.38.056-4.064.168-5.054a5.659 5.659 0 0 1 1.053-2.713c.59-.819 1.387-1.448 2.391-1.887 1.005-.438 2.175-.658 3.511-.658 1.267 0 2.405.208 3.415.622 1.009.414 1.82 1.036 2.435 1.865.614.828.979 1.73 1.096 2.705.118.975.176 2.682.176 5.12v4.05ZM14.805 38.007l5.729-11.964h-6.1l8.88-13.684h9.089l-6.785 8.544h7.122L14.805 38.007Zm8.1-37.454L0 10.133v31.315h47.494V9.792L22.904.552Z" fill="#fff"/></svg>